<?xml version="1.0" encoding="utf-8"?>
<svg viewBox="0 0 500 500" xmlns="http://www.w3.org/2000/svg">
  <g transform="matrix(0.13651998341083527, 0, 0, -0.13978399336338043, 78.36147308349611, 433.44390869140625)" fill="#FFFFFF" stroke="none" style="">
    <path d="M1667 2114 c-4 -4 -7 -281 -7 -616 0 -334 -3 -608 -6 -608 -3 0 -24 11 -47 25 -159 92 -364 25 -440 -144 -29 -64 -29 -179 0 -242 44 -97 141 -171 245 -185 102 -14 233 47 289 134 58 91 59 103 59 594 l0 448 90 0 c185 0 426 -38 456 -71 42 -46 61 -9 39 75 -19 74 -62 136 -122 175 -54 36 -88 46 -195 60 -87 10 -145 35 -204 85 -53 46 -103 140 -112 213 -5 40 -12 59 -23 61 -8 1 -18 0 -22 -4z"/>
    <path d="M440 1870 c-26 -26 -26 -80 0 -108 21 -22 22 -22 439 -22 406 0 418 1 439 20 15 15 22 33 22 60 0 72 10 70 -462 70 -405 0 -419 -1 -438 -20z"/>
    <path d="M440 1560 c-27 -27 -27 -83 2 -110 21 -19 33 -20 440 -20 405 0 419 1 438 20 12 12 20 33 20 55 0 22 -8 43 -20 55 -19 19 -33 20 -440 20 -407 0 -421 -1 -440 -20z"/>
    <path d="M442 1250 c-29 -27 -29 -83 -2 -110 19 -19 33 -20 440 -20 407 0 421 1 440 20 27 27 27 83 -2 110 -21 19 -33 20 -438 20 -405 0 -417 -1 -438 -20z"/>
    <path d="M470 953 c-52 -19 -68 -85 -30 -123 19 -19 31 -20 237 -18 l216 3 19 26 c15 20 18 35 13 58 -12 55 -39 61 -252 60 -103 0 -195 -3 -203 -6z"/>
  </g>
</svg>