<svg xmlns="http://www.w3.org/2000/svg" viewBox="0 0 512 512" version="1.1"><path d="M 236.500 120.881 C 234.300 121.891, 231.670 123.651, 230.655 124.793 C 225.988 130.041, 226.090 127.122, 226.044 256.282 C 225.996 388.419, 225.735 381.873, 231.298 387.831 C 235.712 392.559, 237.821 393, 256 393 C 274.179 393, 276.288 392.559, 280.702 387.831 C 286.265 381.873, 286.004 388.419, 285.956 256.282 C 285.910 127.122, 286.012 130.041, 281.345 124.793 C 277.160 120.086, 272.566 119.044, 256 119.044 C 243.077 119.044, 239.835 119.349, 236.500 120.881 M 126.990 203.250 C 122.594 206.242, 120.063 209.811, 118.957 214.577 C 117.766 219.713, 117.766 374.287, 118.957 379.423 C 119.995 383.897, 122.395 387.458, 126.381 390.438 C 128.869 392.298, 130.813 392.531, 146.231 392.818 C 155.632 392.993, 164.367 392.874, 165.643 392.553 C 169.008 391.709, 175.081 386.050, 176.649 382.298 C 177.747 379.671, 178 363.638, 178 296.848 C 178 215.419, 177.980 214.590, 175.904 210.302 C 174.506 207.415, 172.394 205.143, 169.566 203.486 C 165.485 201.094, 164.661 201, 147.810 201 C 131.293 201, 130.107 201.128, 126.990 203.250 M 343.149 277.696 C 341.306 278.604, 338.606 281.149, 337.149 283.351 L 334.500 287.354 334.500 334.500 L 334.500 381.647 336.983 385.270 C 338.348 387.263, 341.160 389.846, 343.231 391.010 C 346.745 392.984, 348.199 393.105, 364.929 392.813 C 384.808 392.466, 385.900 392.136, 390.750 385.010 L 393 381.704 393 334.500 L 393 287.296 390.726 283.922 C 389.476 282.066, 386.934 279.524, 385.078 278.274 C 381.882 276.120, 380.775 276.001, 364.102 276.023 C 349.794 276.041, 345.873 276.354, 343.149 277.696" stroke="none" fill="#04da5b" fill-rule="evenodd"/><path d="M 0 256.002 L 0 512.004 256.250 511.752 L 512.500 511.500 512.752 255.750 L 513.004 0 256.502 0 L 0 0 0 256.002 M 0.492 256.500 C 0.492 397.300, 0.608 454.751, 0.750 384.170 C 0.892 313.588, 0.892 198.388, 0.750 128.170 C 0.608 57.951, 0.492 115.700, 0.492 256.500 M 236.500 120.881 C 234.300 121.891, 231.670 123.651, 230.655 124.793 C 225.988 130.041, 226.090 127.122, 226.044 256.282 C 225.996 388.419, 225.735 381.873, 231.298 387.831 C 235.712 392.559, 237.821 393, 256 393 C 274.179 393, 276.288 392.559, 280.702 387.831 C 286.265 381.873, 286.004 388.419, 285.956 256.282 C 285.910 127.122, 286.012 130.041, 281.345 124.793 C 277.160 120.086, 272.566 119.044, 256 119.044 C 243.077 119.044, 239.835 119.349, 236.500 120.881 M 126.990 203.250 C 122.594 206.242, 120.063 209.811, 118.957 214.577 C 117.766 219.713, 117.766 374.287, 118.957 379.423 C 119.995 383.897, 122.395 387.458, 126.381 390.438 C 128.869 392.298, 130.813 392.531, 146.231 392.818 C 155.632 392.993, 164.367 392.874, 165.643 392.553 C 169.008 391.709, 175.081 386.050, 176.649 382.298 C 177.747 379.671, 178 363.638, 178 296.848 C 178 215.419, 177.980 214.590, 175.904 210.302 C 174.506 207.415, 172.394 205.143, 169.566 203.486 C 165.485 201.094, 164.661 201, 147.810 201 C 131.293 201, 130.107 201.128, 126.990 203.250 M 343.149 277.696 C 341.306 278.604, 338.606 281.149, 337.149 283.351 L 334.500 287.354 334.500 334.500 L 334.500 381.647 336.983 385.270 C 338.348 387.263, 341.160 389.846, 343.231 391.010 C 346.745 392.984, 348.199 393.105, 364.929 392.813 C 384.808 392.466, 385.900 392.136, 390.750 385.010 L 393 381.704 393 334.500 L 393 287.296 390.726 283.922 C 389.476 282.066, 386.934 279.524, 385.078 278.274 C 381.882 276.120, 380.775 276.001, 364.102 276.023 C 349.794 276.041, 345.873 276.354, 343.149 277.696" stroke="none" fill="#191414" fill-rule="evenodd"/></svg>